HIERARCHY
ROOT Pelvis
{
	OFFSET 0.000000 0.000000 0.000000
	CHANNELS 6 Xposition Yposition Zposition Xrotation Yrotation Zrotation
	JOINT LeftUpLeg_virtual
	{
		OFFSET 0.000000 0.000000 0.000000
		CHANNELS 3 Xrotation Yrotation Zrotation
		JOINT LeftUpLeg
		{
			OFFSET 18.735201 -5.666702 -4.541200
			CHANNELS 3 Xrotation Yrotation Zrotation
			JOINT LeftLeg
			{
				OFFSET -0.021200 -31.938179 0.493100
				CHANNELS 3 Xrotation Yrotation Zrotation
				JOINT LeftFoot
				{
					OFFSET 0.021200 -31.938179 -4.336299
					CHANNELS 3 Xrotation Yrotation Zrotation
					JOINT LeftToeBase
					{
						OFFSET 0.943001 -26.722000 15.023500
						CHANNELS 3 Xrotation Yrotation Zrotation
						End Site
						{
							OFFSET 0 0 0
						}
					}
				}
			}
		}
	}
	JOINT RightUpLeg_virtual
	{
		OFFSET 0.000000 0.000000 0.000000
		CHANNELS 3 Xrotation Yrotation Zrotation
		JOINT RightUpLeg
		{
			OFFSET -18.735201 -5.666702 -4.541200
			CHANNELS 3 Xrotation Yrotation Zrotation
			JOINT RightLeg
			{
				OFFSET 0.018946 -31.938133 0.493100
				CHANNELS 3 Xrotation Yrotation Zrotation
				JOINT RightFoot
				{
					OFFSET -0.018946 -31.938126 -4.336299
					CHANNELS 3 Xrotation Yrotation Zrotation
					JOINT RightToeBase
					{
						OFFSET -0.943001 -26.722004 15.023500
						CHANNELS 3 Xrotation Yrotation Zrotation
						End Site
						{
							OFFSET 0 0 0
						}
					}
				}
			}
		}
	}
	JOINT Hips_virtual
	{
		OFFSET 0.000000 0.000000 0.000000
		CHANNELS 3 Xrotation Yrotation Zrotation
		JOINT Hips
		{
			OFFSET -0.000000 -0.000000 -0.000000
			CHANNELS 3 Xrotation Yrotation Zrotation
			JOINT Spine
			{
				OFFSET 0.000000 10.199997 -0.299500
				CHANNELS 3 Xrotation Yrotation Zrotation
				JOINT Spine1
				{
					OFFSET 0.000000 11.900002 -1.516600
					CHANNELS 3 Xrotation Yrotation Zrotation
					JOINT Spine2
					{
						OFFSET 0.000000 13.600006 -2.842500
						CHANNELS 3 Xrotation Yrotation Zrotation
						JOINT Neck_virtual
						{
							OFFSET 0.000000 0.000000 0.000000
							CHANNELS 3 Xrotation Yrotation Zrotation
							JOINT Neck
							{
								OFFSET 0.000000 9.624100 -2.890100
								CHANNELS 3 Xrotation Yrotation Zrotation
								JOINT Head
								{
									OFFSET 0.000000 14.068802 -1.351900
									CHANNELS 3 Xrotation Yrotation Zrotation
									End Site
									{
										OFFSET 0 0 0
									}
								}
							}
						}
						JOINT LeftShoulder_virtual
						{
							OFFSET 0.000000 0.000000 0.000000
							CHANNELS 3 Xrotation Yrotation Zrotation
							JOINT LeftShoulder
							{
								OFFSET 15.263000 10.923401 -0.547700
								CHANNELS 3 Xrotation Yrotation Zrotation
								JOINT LeftArm
								{
									OFFSET 25.438599 -2.830597 -13.032500
									CHANNELS 3 Xrotation Yrotation Zrotation
									JOINT LeftForeArm
									{
										OFFSET 29.960503 0.000000 0.000000
										CHANNELS 3 Xrotation Yrotation Zrotation
										JOINT LeftHand
										{
											OFFSET 27.849251 0.000000 0.000000
											CHANNELS 3 Xrotation Yrotation Zrotation
											End Site
											{
												OFFSET 0 0 0
											}
										}
									}
								}
							}
						}
						JOINT RightShoulder_virtual
						{
							OFFSET 0.000000 0.000000 0.000000
							CHANNELS 3 Xrotation Yrotation Zrotation
							JOINT RightShoulder
							{
								OFFSET -15.263000 10.923401 -0.547700
								CHANNELS 3 Xrotation Yrotation Zrotation
								JOINT RightArm
								{
									OFFSET -25.438599 -2.830597 -13.032500
									CHANNELS 3 Xrotation Yrotation Zrotation
									JOINT RightForeArm
									{
										OFFSET -29.960503 0.000000 0.000000
										CHANNELS 3 Xrotation Yrotation Zrotation
										JOINT RightHand
										{
											OFFSET -27.849251 0.000000 0.000000
											CHANNELS 3 Xrotation Yrotation Zrotation
											End Site
											{
												OFFSET 0 0 0
											}
										}
									}
								}
							}
						}
					}
				}
			}
		}
	}
}
MOTION
Frames: 13
Frame Time: 0.03333333
-129.820984 36.258446 14.627865 0.000000 0.000000 0.000000 9.814867 3.182057 -55.889058 -130.379719 -4.769083 -2.437975 40.585380 -0.461050 -6.875438 21.619738 -7.310320 32.161868 0.000000 0.000000 0.000000 9.382756 5.021273 -57.621511 -125.830471 -5.798913 -33.034186 133.888565 10.488786 0.416976 16.409866 26.286193 5.268690 0.000000 0.000000 0.000000 8.554766 4.969845 -57.119608 2.449620 -0.125519 -0.934252 25.434231 -2.824529 -10.411877 4.445106 1.495441 -2.391338 0.000000 0.000000 0.000000 4.052611 0.937991 -2.689668 -0.708335 0.518894 0.279734 0.000000 0.000000 0.000000 3.741275 1.493598 -3.072221 -0.843749 -21.616289 -16.796987 -49.288216 31.216765 -6.647886 6.689552 -64.615837 4.074247 0.000000 0.000000 0.000000 3.998108 1.475242 -2.849026 -1.885106 14.366686 -2.825908 -37.826889 -32.353527 -8.025397 2.327874 48.218793 -0.920074 0.000000 0.000000 0.000000 
-128.714966 38.373867 11.923626 0.000000 0.000000 0.000000 11.027074 2.711629 -58.115805 -130.083972 -4.143184 -4.341358 47.617319 1.878341 -6.142510 18.990940 -5.767419 33.127124 0.000000 0.000000 0.000000 10.426390 4.723848 -59.130580 -119.674955 -10.137818 -31.542616 127.455182 9.427960 0.916210 12.914657 26.333880 8.602312 0.000000 0.000000 0.000000 10.027309 4.388101 -59.261132 2.504636 -0.432883 -0.636800 24.746272 -4.485947 -11.163436 4.373587 1.095270 -2.520777 0.000000 0.000000 0.000000 3.836002 0.578392 -2.812328 -0.476549 0.647145 0.323184 0.000000 0.000000 0.000000 3.500697 1.063971 -3.216944 0.053702 -20.787126 -15.315813 -52.500270 30.308828 -6.354652 6.765454 -62.530839 3.992849 0.000000 0.000000 0.000000 3.785068 1.160540 -2.983399 -2.280410 14.494312 -3.340179 -37.005524 -37.466234 -11.199781 1.857324 50.155083 -0.363684 0.000000 0.000000 0.000000 
-127.678169 40.928219 9.624184 0.000000 0.000000 0.000000 13.914104 3.151134 -61.142590 -131.219450 -3.469878 -5.172849 62.100736 4.082700 -6.002362 14.512545 -4.030201 34.945761 0.000000 0.000000 0.000000 13.620149 4.124583 -61.876309 -113.133491 -14.264322 -29.561342 117.728487 9.179950 1.237850 16.091524 27.054282 12.742424 0.000000 0.000000 0.000000 13.428582 3.778070 -62.018036 2.682234 -0.436868 -0.203079 24.297312 -6.398742 -11.055341 4.314265 0.590142 -2.516449 0.000000 0.000000 0.000000 3.638798 0.142201 -2.835531 -0.342946 0.842062 0.349383 0.000000 0.000000 0.000000 3.161103 0.595689 -3.239498 0.808176 -19.895644 -13.531999 -56.242841 29.269365 -5.331042 6.625031 -59.532605 3.796117 0.000000 0.000000 0.000000 3.516822 0.735494 -3.015473 -2.823121 13.929834 -3.120754 -36.528292 -43.318757 -13.080218 1.399423 53.047224 0.105726 0.000000 0.000000 0.000000 
-126.655434 43.953743 7.610909 0.000000 0.000000 0.000000 18.025448 4.055812 -64.546865 -133.085867 -2.726039 -4.516066 80.991065 5.777413 -6.824197 7.083923 -2.827826 37.206469 0.000000 0.000000 0.000000 18.352097 3.599784 -65.479712 -107.076193 -17.649993 -27.215529 104.570517 9.602998 1.731165 25.438708 27.982716 15.772558 0.000000 0.000000 0.000000 18.163310 2.998970 -64.949252 2.764954 -0.354556 -0.049087 24.105030 -8.492988 -10.174517 4.281354 0.013733 -2.422419 0.000000 0.000000 0.000000 3.439282 -0.344274 -2.802707 -0.312733 1.093202 0.336475 0.000000 0.000000 0.000000 2.763113 0.101301 -3.175291 1.389829 -18.985884 -11.467140 -59.967381 28.117206 -3.607219 6.506434 -56.878107 3.637315 0.000000 0.000000 0.000000 3.241789 0.225995 -2.991484 -3.437519 12.543004 -2.446887 -36.029661 -50.050605 -13.434583 1.241213 57.007706 0.268441 0.000000 0.000000 0.000000 
-125.618973 47.464638 5.878040 0.000000 0.000000 0.000000 22.833437 4.792329 -67.287861 -134.563551 -2.124581 -2.602230 98.689021 6.550300 -8.050034 -3.338219 -2.984930 38.775790 0.000000 0.000000 0.000000 23.619855 3.010231 -68.761973 -101.704283 -19.986570 -24.662963 88.356352 9.873738 2.904097 35.224901 27.490316 17.335833 0.000000 0.000000 0.000000 23.355217 2.046528 -67.266046 2.970234 -0.010115 0.082291 24.253752 -10.637927 -8.892136 4.268476 -0.605434 -2.286758 0.000000 0.000000 0.000000 3.260877 -0.865260 -2.747807 -0.372694 1.346525 0.267706 0.000000 0.000000 0.000000 2.378769 -0.422474 -3.070398 1.767288 -18.392062 -9.280975 -63.694410 26.319570 -1.471117 6.291072 -54.261468 3.407498 0.000000 0.000000 0.000000 3.024351 -0.344999 -2.938995 -3.949945 10.538310 -1.651030 -34.727274 -57.271406 -11.672190 1.496492 61.244708 -0.023010 0.000000 0.000000 0.000000 
-124.539383 51.277550 4.065704 0.000000 0.000000 0.000000 27.649352 4.851966 -68.677361 -134.716821 -1.618527 -0.092513 111.657037 6.672078 -8.862166 -14.678174 -4.111528 38.331821 0.000000 0.000000 0.000000 28.380549 2.417547 -70.552985 -97.807066 -20.802516 -22.347042 71.402907 9.576620 4.297263 40.913554 25.220815 18.850552 0.000000 0.000000 0.000000 28.201658 1.119992 -68.303176 3.069414 -0.059789 -0.015096 24.732277 -12.738027 -7.669885 4.324609 -1.237974 -2.158034 0.000000 0.000000 0.000000 3.122978 -1.368820 -2.703508 -0.511388 1.571798 0.133866 0.000000 0.000000 0.000000 2.105344 -0.967243 -2.983310 1.928451 -18.536409 -7.107189 -67.269065 23.214319 0.302960 5.764507 -51.131384 2.904246 0.000000 0.000000 0.000000 2.967429 -0.881799 -2.885600 -4.190613 8.478315 -1.083669 -31.548664 -63.932708 -6.973726 2.328267 64.415623 -0.897124 0.000000 0.000000 0.000000 
-123.348526 54.914391 2.179287 0.000000 0.000000 0.000000 31.650957 3.979397 -68.407876 -133.100812 -1.131754 2.974328 119.233424 6.556974 -8.908867 -24.122946 -4.843661 35.290474 0.000000 0.000000 0.000000 31.932251 1.997624 -70.286922 -96.291003 -19.536740 -20.518623 57.151523 9.585154 4.914044 42.847324 22.721587 20.801507 0.000000 0.000000 0.000000 31.949241 0.425050 -67.820773 2.810166 -0.232716 -0.215922 25.489072 -14.654202 -6.973028 4.470066 -1.815865 -2.061861 0.000000 0.000000 0.000000 3.057845 -1.807457 -2.668290 -0.710469 1.721187 -0.046803 0.000000 0.000000 0.000000 2.035496 -1.500442 -2.946103 1.914121 -19.797037 -5.136332 -70.721568 18.438202 1.100836 5.103340 -47.183719 2.293084 0.000000 0.000000 0.000000 3.108704 -1.322911 -2.841333 -4.059339 6.970174 -0.879213 -25.711544 -68.819784 0.823170 3.726063 65.690820 -2.322438 0.000000 0.000000 0.000000 
-122.259277 57.827278 -0.064987 0.000000 0.000000 0.000000 34.466842 2.732989 -66.519144 -130.104052 -0.776767 6.423359 122.539358 6.574077 -8.209474 -29.207730 -4.026093 30.862739 0.000000 0.000000 0.000000 34.066542 1.722641 -67.925869 -97.371819 -16.616597 -19.563654 48.197534 10.609476 4.926233 41.821532 20.955487 23.235848 0.000000 0.000000 0.000000 34.182228 0.031600 -65.859887 2.412997 -0.067827 -0.287220 26.459649 -16.168675 -7.024026 4.698544 -2.281711 -2.015722 0.000000 0.000000 0.000000 3.067606 -2.134787 -2.652103 -0.964096 1.782344 -0.265429 0.000000 0.000000 0.000000 2.172267 -1.962166 -2.975716 1.771829 -22.265349 -3.530172 -74.033636 12.857874 1.015323 4.490925 -43.286361 1.806589 0.000000 0.000000 0.000000 3.438348 -1.609567 -2.814595 -3.518545 6.533278 -1.069818 -19.169431 -70.960522 9.279322 5.101245 64.967844 -3.696104 0.000000 0.000000 0.000000 
-121.258507 59.641998 -2.599270 0.000000 0.000000 0.000000 35.690713 1.409875 -63.443107 -126.680256 -0.648343 9.742523 123.684084 6.811568 -6.583029 -29.324546 -1.544553 26.836807 0.000000 0.000000 0.000000 34.767582 1.595214 -64.268242 -100.669987 -13.335750 -19.694261 45.566562 12.283842 4.728187 38.633408 19.391684 25.218039 0.000000 0.000000 0.000000 35.052370 0.303059 -62.927585 1.909855 0.048088 -0.414879 27.620078 -17.144446 -7.704400 4.987312 -2.552641 -2.013517 0.000000 0.000000 0.000000 3.181968 -2.294167 -2.660750 -1.268773 1.766121 -0.506288 0.000000 0.000000 0.000000 2.480445 -2.264542 -3.053365 1.564464 -25.670873 -2.202200 -76.859934 8.013125 0.475436 4.031470 -40.522594 1.537454 0.000000 0.000000 0.000000 3.889483 -1.709951 -2.801487 -2.569663 7.339127 -1.563718 -16.008753 -70.196313 13.721391 6.233172 63.052966 -4.759617 0.000000 0.000000 0.000000 
-120.490929 60.388046 -5.290062 0.000000 0.000000 0.000000 35.280929 0.488637 -59.622866 -123.634566 -1.110813 12.618071 124.354741 7.277653 -4.170108 -26.243805 1.760957 24.079501 0.000000 0.000000 0.000000 34.253074 1.584485 -60.109940 -104.752009 -10.738187 -20.022612 47.157289 13.608995 4.220494 33.945852 16.704551 25.273486 0.000000 0.000000 0.000000 34.708621 1.066995 -59.493127 1.465225 0.421515 -0.405902 28.970729 -17.464625 -8.653997 5.307545 -2.616287 -2.042835 0.000000 0.000000 0.000000 3.400177 -2.290132 -2.681489 -1.610880 1.688536 -0.750130 0.000000 0.000000 0.000000 2.857243 -2.354961 -3.162092 1.383652 -29.521044 -1.019033 -79.177069 5.105659 0.348106 3.831654 -39.214035 1.579665 0.000000 0.000000 0.000000 4.327530 -1.666316 -2.799284 -1.308182 9.200688 -2.120818 -17.523060 -66.787434 12.608812 7.015577 61.024557 -5.389631 0.000000 0.000000 0.000000 
-119.909004 60.250099 -8.077991 0.000000 0.000000 0.000000 33.731261 0.142153 -55.436414 -121.504516 -2.227160 14.406752 125.574271 7.923293 -1.299238 -23.587672 4.646196 22.727140 0.000000 0.000000 0.000000 33.166610 1.851521 -56.076604 -107.868194 -9.775914 -20.024767 49.363720 13.700001 3.559705 26.730948 11.993704 23.102089 0.000000 0.000000 0.000000 33.553759 2.029839 -55.775161 1.437965 0.470801 -0.433237 30.577787 -17.132095 -9.388505 5.646254 -2.494907 -2.073768 0.000000 0.000000 0.000000 3.701328 -2.130071 -2.702126 -1.979603 1.583020 -0.988464 0.000000 0.000000 0.000000 3.222718 -2.242670 -3.252952 1.343629 -33.332908 0.262077 -81.003018 4.311564 0.960176 3.701192 -38.694815 1.730564 0.000000 0.000000 0.000000 4.659584 -1.511754 -2.801073 0.147883 11.842635 -2.545325 -21.264486 -60.972935 8.478021 7.498191 59.312967 -5.626575 0.000000 0.000000 0.000000 
-119.458374 59.555042 -10.611572 0.000000 0.000000 0.000000 31.760499 0.269469 -51.175527 -120.085107 -3.235079 15.401675 127.407562 8.420473 1.605442 -24.032507 6.310510 22.366641 0.000000 0.000000 0.000000 31.676505 2.184662 -52.335723 -109.631674 -10.357453 -19.615598 50.099089 12.648802 2.975598 17.321216 5.976356 19.001103 0.000000 0.000000 0.000000 31.967782 3.079346 -51.988682 1.535119 0.244806 -0.429510 32.448115 -16.271153 -9.596799 5.996326 -2.235257 -2.085832 0.000000 0.000000 0.000000 4.064605 -1.852292 -2.691539 -2.366953 1.463967 -1.205485 0.000000 0.000000 0.000000 3.538430 -1.979383 -3.289891 1.581280 -36.757527 1.951795 -82.532577 4.726386 1.771856 3.448643 -37.078853 1.787245 0.000000 0.000000 0.000000 4.861148 -1.298706 -2.787308 1.614067 14.705462 -2.611350 -24.734864 -52.777500 4.407222 7.618256 57.667793 -5.479071 0.000000 0.000000 0.000000 
-119.194283 58.550560 -13.044552 0.000000 0.000000 0.000000 29.957606 1.047761 -47.018049 -119.225187 -2.865174 16.871962 128.994065 8.741901 3.418407 -26.769851 6.996059 22.051088 0.000000 0.000000 0.000000 30.165906 2.600149 -48.602240 -110.537814 -11.743610 -18.913045 48.915875 11.040043 2.564685 9.155652 0.903156 14.476658 0.000000 0.000000 0.000000 30.195860 3.635699 -47.871935 1.620540 0.117755 -0.792023 34.498923 -14.988584 -9.234376 6.382417 -1.912477 -2.068730 0.000000 0.000000 0.000000 4.399225 -1.508027 -2.621599 -2.761104 1.344538 -1.385483 0.000000 0.000000 0.000000 3.826984 -1.647720 -3.259019 2.209040 -39.590030 4.022992 -83.925150 4.871118 1.974952 2.942781 -32.939912 1.593886 0.000000 0.000000 0.000000 4.966812 -1.064150 -2.770310 2.847833 17.430673 -2.239801 -27.544138 -42.527944 1.464346 7.184395 55.301463 -4.812563 0.000000 0.000000 0.000000 
